ply
format ascii 1.0
comment this file is a dodecahedron
element vertex 12
property float32 x
property float32 y
property float32 z
element face 20
property list uchar int vertex_index
end_header
-0.1240127019	-0.7852036995	0.8660254038
-1.742012702	2.017254507	0.8660254038
-1.624012702	-1.651229103	-0.1339745962
-3.242012702	1.151229103	-0.1339745962
-0.0365	1.133627254	0.309
-2.4635	-0.2676018498	-1.309
-0.9025254038	0.6336272536	2.041050808
-3.329525404	-0.7676018498	0.4230508076
-0.4823981502	-0.2785127019	-1.0352037
-1.883627254	-1.087512702	1.767254507
-1.48239815	1.453538106	-1.0352037
-2.883627254	0.6445381057	1.767254507
3 1 6 4
3 11 6 1
3 4 10 1
3 3 11 1
3 3 1 10
3 6 11 9
3 7 9 11
3 3 7 11
3 3 5 7
3 10 5 3
3 10 8 5
3 4 8 10
3 4 0 8
3 6 0 4
3 9 0 6
3 7 2 9
3 5 2 7
3 8 2 5
3 8 0 2
3 0 9 2