ply
format ascii 1.0
comment this file is a dodecahedron
element vertex 12
property float32 x
property float32 y
property float32 z
element face 20
property list uchar int vertex_index
end_header
0.8660254038	0.5	-0.618
0.8660254038	0.5	2.618
-0.1339745962	2.232050808	-0.618
-0.1339745962	2.232050808	2.618
0.309	-0.5352036995	1
-1.309	2.267254507	1
2.041050808	0.4647963005	1
0.4230508076	3.267254507	1
-1.0352037	0.5570254038	0
1.767254507	2.175025404	0
-1.0352037	0.5570254038	2
1.767254507	2.175025404	2
3 4 6 1
3 1 6 11
3 1 10 4
3 1 11 3
3 10 1 3
3 9 11 6
3 11 9 7
3 11 7 3
3 7 5 3
3 3 5 10
3 5 8 10
3 10 8 4
3 8 0 4
3 4 0 6
3 6 0 9
3 9 2 7
3 7 2 5
3 5 2 8
3 2 0 8
3 2 9 0