ply
format ascii 1.0
comment this file is a dodecahedron
element vertex 12
property float32 x
property float32 y
property float32 z
element face 20
property list uchar int vertex_index
end_header
0.8660254038	0.7852036995	0.1240127019
0.8660254038	-2.017254507	1.742012702
-0.1339745962	1.651229103	1.624012702
-0.1339745962	-1.151229103	3.242012702
0.309	-1.133627254	0.0365
-1.309	0.2676018498	2.4635
2.041050808	-0.6336272536	0.9025254038
0.4230508076	0.7676018498	3.329525404
-1.0352037	0.2785127019	0.4823981502
1.767254507	1.087512702	1.883627254
-1.0352037	-1.453538106	1.48239815
1.767254507	-0.6445381057	2.883627254
3 4 6 1
3 1 6 11
3 1 10 4
3 1 11 3
3 10 1 3
3 9 11 6
3 11 9 7
3 11 7 3
3 7 5 3
3 3 5 10
3 5 8 10
3 10 8 4
3 8 0 4
3 4 0 6
3 6 0 9
3 9 2 7
3 7 2 5
3 5 2 8
3 2 0 8
3 2 9 0