ply
format ascii 1.0
comment this file is a dodecahedron
element vertex 12
property float32 x
property float32 y
property float32 z
element face 20
property list uchar int vertex_index
end_header
-2.479623801	-0.7852036995	0.8660254038
4.309750819	2.017254507	0.8660254038
-6.577700012	-1.651229103	-0.1339745962
0.2116746081	1.151229103	-0.1339745962
3.364381761	1.133627254	0.309
-3.266305549	-0.2676018498	-1.309
0.9983563569	0.6336272536	2.041050808
-5.632330953	-0.7676018498	0.4230508076
-1.317936256	-0.2785127019	-1.0352037
-5.146165359	-1.087512702	1.767254507
2.878216167	1.453538106	-1.0352037
-0.9500129365	0.6445381057	1.767254507
3 1 6 4
3 11 6 1
3 4 10 1
3 3 11 1
3 3 1 10
3 6 11 9
3 7 9 11
3 3 7 11
3 3 5 7
3 10 5 3
3 10 8 5
3 4 8 10
3 4 0 8
3 6 0 4
3 9 0 6
3 7 2 9
3 5 2 7
3 8 2 5
3 8 0 2
3 0 9 2