ply
format ascii 1.0
comment this file is a hexahedron
element vertex 8
property float32 x
property float32 y
property float32 z
element face 6
property list uchar int vertex_index
end_header
0	0	0
4.196152423	1.732050808	0
-4.098076211	-0.8660254038	-1
0.09807621135	0.8660254038	-1
-2.366025404	-0.5	1.732050808
1.830127019	1.232050808	1.732050808
-6.464101615	-1.366025404	0.7320508076
-2.267949192	0.3660254038	0.7320508076
4 2 3 1 0
4 4 5 7 6
4 4 0 1 5
4 6 7 3 2
4 7 5 1 3
4 2 0 4 6