ply
format ascii 1.0
comment this file is a octahedron
element vertex 6
property float32 x
property float32 y
property float32 z
element face 8
property list uchar int vertex_index
end_header
0.04903810568	0.4330127019	-0.5
0.9150635095	0.6160254038	0.8660254038
-3.232050808	-0.6830127019	0.3660254038
-2.316987298	-0.06698729811	1.232050808
-3.183012702	-0.25	-0.1339745962
0.9641016151	1.049038106	0.3660254038
3 0 1 2
3 2 1 3
3 4 0 2
3 3 4 2
3 5 1 0
3 3 1 5
3 5 0 4
3 5 4 3