ply
format ascii 1.0
comment this file is a dodecahedron
element vertex 20
property float32 x
property float32 y
property float32 z
element face 12
property list uchar int vertex_index
end_header
0	0	0
0	-1.732050808	1
-1	0.8660254038	1.5
-1	-0.8660254038	2.5
1.732050808	0.5	0.8660254038
1.732050808	-1.232050808	1.866025404
0.7320508076	1.366025404	2.366025404
0.7320508076	-0.3660254038	3.366025404
0.6760254038	0.9514805771	0.4080127019
0.6760254038	-1.854441731	2.028012702
0.05602540378	1.488416327	1.338012702
0.05602540378	-1.317505981	2.958012702
0.6390896534	-1.039493279	0.1995448267
-0.9809103466	0.3634678752	2.629544827
1.712961154	-0.729493279	0.7364805771
0.09296115413	0.6734678752	3.166480577
-1.03693575	-0.05107695155	0.6715321248
-1.03693575	-1.124948452	1.291532125
1.768986558	0.7589230485	2.074493279
1.768986558	-0.3149484522	2.694493279
5 12 14 5 9 1
5 1 17 16 0 12
5 0 8 4 14 12
5 15 13 3 11 7
5 19 18 6 15  7
5 2 10 8 0 16
5 10 2 13 15 6
5 19 7 11 9 5
5 3 13 2 16 17
5 1 9 11 3 17
5 4 8 10 6 18
5 18 19 5 14 4