ply
format ascii 1.0
comment this file is a dodecahedron
element vertex 20
property float32 x
property float32 y
property float32 z
element face 12
property list uchar int vertex_index
end_header
0	0	0
4.196152423	1.732050808	0
-4.098076211	-0.8660254038	-1
0.09807621135	0.8660254038	-1
-2.366025404	-0.5	1.732050808
1.830127019	1.232050808	1.732050808
-6.464101615	-1.366025404	0.7320508076
-2.267949192	0.3660254038	0.7320508076
-3.262454433	-0.9514805771	0.6760254038
3.535312492	1.854441731	0.6760254038
-5.803261684	-1.488416327	0.05602540378
0.9945052407	1.317505981	0.05602540378
2.91893501	1.039493279	0.6390896534
-3.719948452	-0.3634678752	-0.9809103466
1.45199926	0.729493279	1.712961154
-5.186884203	-0.6734678752	0.09296115413
-0.5183012702	0.05107695155	-1.03693575
2.083313232	1.124948452	-1.03693575
-4.351262424	-0.7589230485	1.768986558
-1.749647922	0.3149484522	1.768986558
5 1 9 5 14 12
5 12 0 16 17 1
5 12 14 4 8 0
5 7 11 3 13 15
5 7 15 6 18 19
5 16 0 8 10 2
5 6 15 13 2 10
5 5 9 11 7 19
5 17 16 2 13 3
5 17 3 11 9 1
5 18 6 10 8 4
5 4 14 5 19 18
