ply
format ascii 1.0
comment this file is a dodecahedron
element vertex 20
property float32 x
property float32 y
property float32 z
element face 12
property list uchar int vertex_index
end_header
0	0	0
0	0	2
0	2	0
0	2	2
2	0	0
2	0	2
2	2	0
2	2	2
1	0.38	-0.62
1	0.38	2.62
1	1.62	-0.62
1	1.62	2.62
0.38	-0.62	1
0.38	2.62	1
1.62	-0.62	1
1.62	2.62	1
-0.62	1	0.38
-0.62	1	1.62
2.62	1	0.38
2.62	1	1.62
5 12 14 5 9 1
5 1 17 16 0 12
5 0 8 4 14 12
5 15 13 3 11 7
5 19 18 6 15  7
5 2 10 8 0 16
5 10 2 13 15 6
5 19 7 11 9 5
5 3 13 2 16 17
5 1 9 11 3 17
5 4 8 10 6 18
5 18 19 5 14 4